<?xml version="1.0" encoding="utf-8"?>
<!-- Generator: Adobe Illustrator 18.1.1, SVG Export Plug-In . SVG Version: 6.00 Build 0)  -->
<svg version="1.1" id="Capa_1" xmlns="http://www.w3.org/2000/svg" xmlns:xlink="http://www.w3.org/1999/xlink" x="0px" y="0px"
	 viewBox="0 0 512 97.5" enable-background="new 0 0 512 97.5" xml:space="preserve">
<g>
	<g>
		<path fill="#919191" d="M167.2,24.2c-8.3,0-17.5,4.5-21.8,11.5h0v-9.4h-22.2v59.1v9.9H146V57.7c0-7.5,3.6-14.8,12.2-14.8
			c9.1,0,11.2,5.5,11.2,12.2v7v33.4h22.8V51C192.2,41,190.4,24.2,167.2,24.2z"/>
		<path fill="#919191" d="M243.1,33.4H243c-4.7-5.9-11.4-9.4-19.8-9.4C203.6,24,194,41.2,194,59.2c0,19.7,9.2,38.4,31,38.4
			c8.2,0,14.6-3.4,19.1-9.9h0.2v7.6H266V0h-22.8V33.4z M230.6,80.1c-10.3,0-13.9-10.6-13.9-20.1c0-8.8,3.6-18.6,13.9-18.6
			c9.9,0,13.5,9.2,13.5,19.3C244.1,69.6,241.7,80.1,230.6,80.1z"/>
		<rect x="272.4" y="26.3" fill="#919191" width="22.8" height="69.1"/>
		<path fill="#919191" d="M492,51.9l17.1-25.6H485l-9.8,16.6l-9.8-16.6h-25.1l17.5,26c2.8,4.1,2.8,9.5,0,13.6l-19.5,29.4h25.1
			l11.4-20.1l12,20.1H512l-20-29.8C489.2,61.5,489.2,56.1,492,51.9z"/>
		<path fill="#919191" d="M345.1,24.2c-8.3,0-17.5,4.5-21.8,11.5h0v-9.4h-22.2v69.1h22.8V57.7c0-7.5,3.6-14.8,12.2-14.8
			c9.1,0,11.2,5.5,11.2,12.2v7v33.4h22.8V51C370.1,41,368.3,24.2,345.1,24.2z"/>
		<path fill="#919191" d="M408.4,24.1c-21.5,0-36.5,15.9-36.5,36.8c0,20.9,15,36.6,36.5,36.6S445,81.7,445,60.9
			C445,40,429.9,24.1,408.4,24.1z M408.4,80.1c-10.6,0-13.8-10.3-13.8-19.3c0-8.8,3.2-19.4,13.8-19.4c10.7,0,13.9,10.6,13.9,19.4
			C422.3,69.8,419.1,80.1,408.4,80.1z"/>
	</g>
	<path fill="#0179D3" d="M78.5,0L78.5,0C70.8,0,64,4.8,61.3,11.9L29.9,95.4h25.7l22.7-68.9h0.3L101,95.4h26.1L95.7,11.9
		C93,4.8,86.1,0,78.5,0z"/>
	<path fill="#0179D3" d="M14.9,17.7L14.9,17.7L11.4,4.3C10.7,1.8,8.4,0,5.8,0h0C2.6,0,0,2.6,0,5.8v20.7h6.5v-20h0.2l5.6,20h5.3
		l5.6-20H23v20H30V5.8C30,2.6,27.4,0,24.2,0H24c-2.6,0-4.9,1.8-5.6,4.3L14.9,17.7z"/>
	<path fill="#0179D3" d="M40.7,27c5.2,0,9.2-2.9,9.7-8.2h-6.2c-0.3,1.8-1.4,3.3-3.6,3.3c-2.7,0-3.8-2.6-3.8-5.1
		c0-2.7,0.6-5.7,4.1-5.7c1.6,0,3.1,1,3.1,2.8h6.2c-0.5-5.3-4.7-7.6-9.6-7.6c-6.2,0-10.2,4.4-10.2,10.6C30.6,23.1,34.9,27,40.7,27z"
		/>
</g>
</svg>
